#!OML:ASF C:\Vicon Data\Big\jianyuan-12\jianyuan\Session 1\Capture.male.ASF
:FULLY-SPECIFIED
:DEGREES
70
root -8.597805 17.113362 -17.925589 5.181712 7.518741 2.481406
lowerback -9.310373 0.107387 -5.851595 
upperback 2.332701 0.929355 -1.223657 
thorax 7.645061 0.204775 2.142731 
lowerneck -3.848610 -6.596935 -5.613349 
upperneck 7.258133 -9.340848 9.438493 
head 3.498164 -4.470111 3.333223 
rclavicle 0.000000 0.000000 
rhumerus -29.879694 -21.172004 -84.083924 
rradius 41.231201 
rwrist 26.177742 
rhand -18.529276 -5.707222 
rfingers 0.000000 
rthumb 7.759497 -35.544863 
lclavicle 0.000000 0.000000 
lhumerus -38.462418 31.370536 72.245725 
lradius 28.381780 
lwrist -49.685771 
lhand -8.431018 4.206630 
lfingers 0.000000 
lthumb 17.494039 33.439504 
rfemur -16.241599 1.401954 20.513494 
rtibia 33.629896 
rfoot -27.959227 -3.060771 
rtoes -3.087042 
lfemur -28.319138 4.729394 -21.201176 
ltibia 62.085611 
lfoot -16.610494 6.411821 
ltoes -23.283473 
71
root -8.600458 17.107922 -17.856378 5.185468 7.605545 2.494188
lowerback -9.211797 0.136391 -5.849524 
upperback 2.351619 0.961960 -1.237423 
thorax 7.606117 0.221775 2.130945 
lowerneck -3.910837 -6.599952 -5.768952 
upperneck 7.303489 -9.337764 9.476290 
head 3.530819 -4.468113 3.366721 
rclavicle 0.000000 0.000000 
rhumerus -29.522065 -20.804296 -84.279590 
rradius 41.441013 
rwrist 25.896777 
rhand -18.882815 -5.806769 
rfingers 0.000000 
rthumb 7.418244 -35.656585 
lclavicle 0.000000 0.000000 
lhumerus -38.552769 31.243638 72.234235 
lradius 28.384877 
lwrist -49.307689 
lhand -8.269714 4.388752 
lfingers 0.000000 
lthumb 17.649309 33.607713 
rfemur -15.933651 1.427617 20.571671 
rtibia 33.586681 
rfoot -28.215359 -3.145923 
rtoes -3.075781 
lfemur -28.868153 4.394225 -21.295277 
ltibia 61.337588 
lfoot -16.855981 6.419398 
ltoes -24.500529 
72
root -8.605150 17.104277 -17.785531 5.145953 7.556624 2.400351
lowerback -9.096786 0.264294 -5.743047 
upperback 2.357211 1.112904 -1.256430 
thorax 7.535112 0.302702 2.072848 
lowerneck -3.836482 -6.674720 -5.702122 
upperneck 7.221596 -9.434951 9.433528 
head 3.496379 -4.519274 3.340871 
rclavicle 0.000000 0.000000 
rhumerus -29.249773 -20.541581 -84.462516 
rradius 41.672299 
rwrist 25.405229 
rhand -19.093516 -5.803911 
rfingers 0.000000 
rthumb 7.214886 -35.660922 
lclavicle 0.000000 0.000000 
lhumerus -38.777062 31.123309 72.111810 
lradius 28.429442 
lwrist -49.159086 
lhand -8.281980 4.507829 
lfingers 0.000000 
lthumb 17.637485 33.727880 
rfemur -15.603783 1.565310 20.743888 
rtibia 33.517413 
rfoot -28.402806 -3.244983 
rtoes -3.424317 
lfemur -29.350646 4.217153 -21.234563 
ltibia 60.533281 
lfoot -17.335156 6.305263 
ltoes -23.451523 
73
root -8.602646 17.103759 -17.712697 5.179970 7.519079 2.403954
lowerback -9.081148 0.381015 -5.646284 
upperback 2.360847 1.261924 -1.352532 
thorax 7.521826 0.382072 1.939320 
lowerneck -3.732910 -6.691705 -5.626750 
upperneck 7.115991 -9.474365 9.581871 
head 3.454313 -4.537402 3.376355 
rclavicle 0.000000 0.000000 
rhumerus -28.930929 -20.454946 -84.656405 
rradius 41.936303 
rwrist 24.924615 
rhand -18.979690 -5.770709 
rfingers 0.000000 
rthumb 7.324776 -35.623939 
lclavicle 0.000000 0.000000 
lhumerus -39.034950 31.348529 71.712154 
lradius 28.311622 
lwrist -49.685978 
lhand -8.401108 4.374912 
lfingers 0.000000 
lthumb 17.522851 33.605177 
rfemur -15.304371 1.552747 20.773823 
rtibia 33.413767 
rfoot -28.553317 -3.206131 
rtoes -3.703234 
lfemur -29.816635 3.973850 -21.331172 
ltibia 59.607239 
lfoot -17.595787 6.326362 
ltoes -23.154441 
74
root -8.601344 17.102997 -17.639901 5.175167 7.512317 2.452236
lowerback -9.024728 0.437030 -5.655558 
upperback 2.399441 1.336786 -1.379385 
thorax 7.525646 0.417853 1.926636 
lowerneck -3.771443 -6.717958 -5.461406 
upperneck 7.052081 -9.497827 9.428388 
head 3.428299 -4.549599 3.302020 
rclavicle 0.000000 0.000000 
rhumerus -28.575439 -20.193885 -84.793960 
rradius 42.167174 
rwrist 24.912571 
rhand -18.897262 -5.918668 
rfingers 0.000000 
rthumb 7.404343 -35.769055 
lclavicle 0.000000 0.000000 
lhumerus -39.219655 31.411100 71.551595 
lradius 28.276292 
lwrist -49.718107 
lhand -8.313745 4.300394 
lfingers 0.000000 
lthumb 17.606892 33.523181 
rfemur -14.934398 1.480696 20.767113 
rtibia 33.282311 
rfoot -28.756360 -3.113629 
rtoes -3.662260 
lfemur -30.189936 3.628070 -21.386339 
ltibia 58.590951 
lfoot -17.911724 6.072610 
ltoes -22.108326 
75
root -8.601619 17.104107 -17.573109 5.129520 7.462540 2.510460
lowerback -8.839363 0.503959 -5.678284 
upperback 2.420924 1.417503 -1.412028 
thorax 7.436098 0.458858 1.913872 
lowerneck -3.757587 -6.754279 -5.758627 
upperneck 7.036618 -9.551359 9.690187 
head 3.452259 -4.575198 3.425304 
rclavicle 0.000000 0.000000 
rhumerus -28.246126 -19.976360 -84.894061 
rradius 42.318264 
rwrist 24.850576 
rhand -18.868358 -5.771146 
rfingers 0.000000 
rthumb 7.432203 -35.620546 
lclavicle 0.000000 0.000000 
lhumerus -39.465352 31.648749 71.323912 
lradius 28.323831 
lwrist -49.314778 
lhand -7.991944 4.223174 
lfingers 0.000000 
lthumb 17.916555 33.417861 
rfemur -14.551907 1.536816 20.749131 
rtibia 33.158727 
rfoot -29.039716 -3.161165 
rtoes -3.860292 
lfemur -30.522641 3.142551 -21.389208 
ltibia 57.505707 
lfoot -18.246772 5.819858 
ltoes -20.640841 
